<svg id="图层_1" data-name="图层 1" xmlns="http://www.w3.org/2000/svg" viewBox="0 0 316.06 158.82"><defs><style>.cls-1{fill:#ee8600;}.cls-1,.cls-2,.cls-3,.cls-4,.cls-5,.cls-6,.cls-7{fill-rule:evenodd;}.cls-2{fill:#f5a21b;}.cls-3{fill:#fbc400;}.cls-4{fill:#fff;}.cls-5{fill:#241f61;}.cls-6{fill:#e71f18;}.cls-7,.cls-8{fill:#00489d;}</style></defs><title>USKid Logo-（正确版本）</title><path class="cls-1" d="M262.47,206.73a1,1,0,0,0-.14.26ZM161.33,135a50.37,50.37,0,0,1,7.45-.59c15.34,0,22.75,8.11,26.76,11.4,2.41,2,3,4.9,3.43,4.88,1.75-.07-.58-4.55,0-5.68s45.24-9.91,45.86-10,1.59,1.09,1.59,1.09l3.09,5s-4.83,4.49-4.83,5.22l6.58-1.52,1.5.68,13.39,12.15c1.78,1.57-1.28-10.87-1.28-10.87.59-1.21,32.21-1.6,32.21-1.6l1.58,1.89c0,1.14-.53,24.44-.53,24.44,0,.47,3.54-6.44,12.33-9.77s20.12-2.1,20.12-2.1c.95-.44,2.2-22.06,2.2-22.06,0-.94,33.58,1.55,33.58,1.55s4.5,5.89,4.26,8.16c0,0-6.54,68.36-6.54,68.38l-.38,24.67-30.44-3.83a3.41,3.41,0,0,1-1.27-.79c-.57-.58-1.22-2-1.57-2-.7,0-.19,1.88-1.26,1.75-6.57-.82-19.91-3.34-19.91-3.34-1.73-2.33-5.9-7.9-7-6.85s1.11,10.13.78,11.22l-33.22,1.18a23.72,23.72,0,0,1-5-1.18l-7.16-10.58c.13-5.65,3.72-17,4.62-18.89l-19.47,33.3-11.23-12.15.94,7.8-26.46-.51-4.26-3.34-2.38-4.78s.62,3.45-7.84,9.15c-16.43,11.09-29.78,7-36.8,4.84C143.89,238,140.39,230.1,138,227.05c-1.4-1.75-2.86-6.24-3.32-6s.08,2.41-.82,4.16-3.37,8.5-16,13.9-29,5-38.75-.78c-13-7.78-16.44-13.73-20.3-24.6s-2.83-61.52-2.32-67c.22-2.33,5.07-3,8.52-2.43l31.18,4.11,1.67,2.48c.8.12-2.9,36.17-2.9,36.17l-4.1.69L94,190.26l-1.91,3.48,3.77-3,3.22,2.44-.33-3.53,3-3.55-3.86.52-.53-.52L100,147.54l36,.64a6.73,6.73,0,0,1,1.43.5l3.45,1S141.14,138,161.33,135Z" transform="translate(-54.57 -133.19)"/><path class="cls-2" d="M261.42,204.62a.42.42,0,0,0-.08.13ZM156.26,136.39a43.43,43.43,0,0,1,12.56-2,33.26,33.26,0,0,1,13.39,2.8c4.5,1.92,9.06,6.18,11.49,8.26s3,3.94,3.21,3.93c1.75-.07.42-5.37,1-6.5.48-.94,45.48-7.93,46-8a4.11,4.11,0,0,1,1,0l3.38,6-5,5,5.26-2.87,2.7,1.75,12.11,12.27.43-12.42c.56-1.15,31.09-1.6,31.09-1.6l2.17,2.1v24.22c0,.48,3.54-6.44,12.33-9.76s20.13-2.11,20.13-2.11c1-.44,2.2-22.06,2.2-22.06,0-.84,32,1.66,32.62,1.75s2.17,2.14,2.17,2.14,2.87,3.55,2.62,5.82l-6.48,68.62-.5,24.43-28.44-3.66a13.7,13.7,0,0,1-2-.69c-.31-.23-1-2.12-1.35-2.21-.67-.16-.93.47-1.17,1.1s-.45,1.17-1,1.11c-6.57-.82-19.64-2.94-19.64-2.94a13.73,13.73,0,0,1-2.21-2.32c-2.35-2.75-5.32-6-6.16-5.18-1.06,1.05,1.09,10,.76,11.13l-32.42,1c-1.94-.12-6.5-3-6.5-3L257.59,226c.14-5.82,3.07-19.76,3.75-21.29L241.8,238.18,230.57,226l1,7.79H203.93l-2-1.94-3.41-8s.49,2.76-6.92,8.62c-16.94,13.4-33.7,7.73-39.83,5.05-9.36-4.1-11.61-9.57-14-12.62-1.4-1.75-3.08-5.77-3.54-5.5s-1.71,3.16-2.64,5c-6.15,12.46-34.62,20-53.5,11.82-11.33-4.9-16.44-13.74-20.3-24.61s.11-69.16.11-69.16,26.68,2.23,36.95,4.29c.68.13,1.53,1.8,1.53,1.8l-2.39,37.85-4.55.36,3.2,2,.76.94-2,4.24,4-3.24,4,2.81-2.61-5.3,4.79-2.49-4,.35-.6-.44.6-39.46L134.58,148a8.24,8.24,0,0,1,1.81,1l1.3,1.8S139.58,141.41,156.26,136.39Z" transform="translate(-54.57 -133.19)"/><path class="cls-3" d="M259.3,202.51l0,.07Zm70.31-69.2c0-.08.28-.12.78-.12,5.12,0,34,4,34,4s2.86,3.56,2.62,5.82l-6.48,68.62-.5,24.43-28.45-3.66a6.22,6.22,0,0,0-2.58-2.14c-.67-.16-1.14.28-1.59.71s-.79.8-1.29.74c-6.58-.82-19.64-2.94-19.64-2.94-1.73-2.33-7.32-8.55-8.38-7.5s1.1,10,.77,11.13l-32.26.68a10.87,10.87,0,0,1-4.08-1.37l-5-6c.13-5.91,1.17-21.86,1.68-23.12l-19.57,33.49-11.23-12.14.94,7.79H201.82l-3-5.37-.82-5.26v0c.06.49.15,3.91-7.66,9.18-16.43,11.09-29.54,7.58-36.56,5.45C142.81,232.41,139.66,222,137.22,219c-1.4-1.75-2.81-4.5-3.26-4.23s-1.72,3.15-2.64,5c-6.15,12.46-30.41,23.32-56.48,13.3C66.66,230,58.63,220.44,55.6,209.54c-2.32-8.31,0-68.79,0-68.79l39.05,5.92c.8.12-2,39.11-2,39.11l-4.08.39,4.08,2.69-2,4.27,4-2.37,2.95,2.37-1.08-4.74,4.39-2.8-4.06.19v-39.9l37.39,2.51,1.92,3.19S138.82,141,155.56,136c19.17-5.73,30.69,3.92,35.86,8.66,2.19,2,3.25,4.38,3.69,4.36,1.75-.07.11-7.14.69-8.28s48-6,48-6c.72-.06,3.05,5.8,3.05,5.8s-3.75,4.56-3.75,5.3l5.41-2.86c.11,1.07,11.87,13.3,11.87,13.3,1.79,1.57,1.27-13.8,1.27-13.8.66-1.36,33.26.5,33.26.5v24.22c0,.48,3.53-6.43,12.32-9.76s20.13-2.11,20.13-2.11C328.36,154.93,329.61,133.31,329.61,133.31Z" transform="translate(-54.57 -133.19)"/><path class="cls-4" d="M240.3,137.43l-41.4,5.23c-.62.42-.49,17.16-1.17,17.16s-1-3.44-5.53-9.26c-7.89-10.14-22.31-11.55-31.93-10.75-15.91,1.33-24.55,15.39-24.55,15.39l-6.78-4.64-32.43-1.91,2.35,33.88,1.33,1.63H104l-7,5.11,3.19,8.4-6.1-4.47H91.86l-6.25,4.47L89,188.79l-5.88-4.24,5.88-.39s2.74-31.35,2.83-31.68l-6.25-2.42L58,144.88v39.28c0,16.1-1.73,30.74,14.11,41.33,17.33,11.57,47.29,4.45,55.21-10.33,1.17-2.17,3.88-9.92,5-9.85s2.84,6,3.4,7.79c4,12.39,16.72,19.27,30.34,18.52s24.51-6.53,29.19-13.92c1.92-3,5.4-11.65,5.4-11.65v16.52l3.14,4.92H225.9l-1-10.41L238.17,230s17.21-27.92,17.3-28l-3.74-5.05-11.43-4.1,22.07-18.09s-1.73,46.57-1.73,49.67c0,0,3.24,3.76,5.13,3.87l29.37.5c0-2.44-.85-9-.85-11.06s4.17-1.73,7.12,2c6.37,8.11,22.52,8.88,25.76,7.77,1.92-.66,2.29-.71,3.35,0a6,6,0,0,0,2.81.78l22.77,2.48c-1.06-17.57,6.51-85.87,6.51-85.87l-2.42-4.46-27.54-3s-1.2,22-2.13,22.39c0,0-15.92-2.12-24.42,2.12-5,2.49-11,9.46-12.71,12.78s-3.16.48-3.21,0a218.33,218.33,0,0,1,0-27.9H264.13s-.91,17.51-.91,16.84c0,0-18.45-17.81-18.56-18.78l-6.49,5.68c-.11-1.07,4.91-9,4.91-9s-1.88-4.12-2.76-4.12Z" transform="translate(-54.57 -133.19)"/><path class="cls-5" d="M63.82,196.37c0,9.39,2.8,16.65,8.63,22s13.44,8.05,23.2,8.05,17.25-2.68,23.08-8.05,9.45-11.42,9.81-21l3-40.17s-3.35-4-4.39-4.05-24.18,0-24.18,0l-2.13,28.45s1.09,1.65,1.31,2h8.4a.65.65,0,0,1,.38,1.19l-8.78,5.48a.65.65,0,0,0-.24.75l3.7,9.71a.66.66,0,0,1-1,.75l-9.8-6.71a9.47,9.47,0,0,0-3,.15l-6.7,5.26a.66.66,0,0,1-1-.76l3.78-9.57a.65.65,0,0,0-.24-.75l-6.46-4.65a.65.65,0,0,1,.37-1.19h4.89c0-.42,3.06-29.64,3.06-29.64L86,152.1c-1.08-.18-22.17-3.18-22.17-3.18Z" transform="translate(-54.57 -133.19)"/><path class="cls-6" d="M60.64,195.31c0,9.39,2.81,16.66,8.63,22s13.45,8,23.2,8,17.26-2.69,23.09-8,8.74-12.74,8.74-22l3-42.17-27.49-1,1.06,28.46v1h6.82a.66.66,0,0,1,.38,1.19L99,189.18a.66.66,0,0,0-.25.75l3.76,10.7a.66.66,0,0,1-1,.75L92.35,195a.65.65,0,0,0-.75,0l-9.11,6.41a.66.66,0,0,1-1-.75l3.75-10.7a.65.65,0,0,0-.24-.75l-9.07-6.39a.66.66,0,0,1,.38-1.19H83c0-.42,3-29.51,3-29.51l-25.38-4.22Z" transform="translate(-54.57 -133.19)"/><path class="cls-5" d="M321.85,189.33a.52.52,0,0,1-.5.37l-6.59-.23a.53.53,0,0,0-.3,1l5.06,3.27a.52.52,0,0,1,.19.6l-3.13,8.31a.53.53,0,0,0,.8.61l6.09-4.68a6.62,6.62,0,0,1,1.61,0l7.73,5.34a.53.53,0,0,0,.8-.6l-2.61-5.5a.52.52,0,0,1,.19-.6l7.35-6.52a.53.53,0,0,0-.3-1h-9a.53.53,0,0,1-.5-.37l-2.06-1.62-1.87-6.82a.53.53,0,0,0-1,0ZM338.48,145l17.58-1.34,2.2,3.12-5.62,62.1q-.25,2.81-.18,17.63l-20.56-1.82a1.29,1.29,0,0,1-1.17-1.16,1.29,1.29,0,0,0-1.92-1c-3.16,1.75-4.18,2.64-7.36,2.36-8.89-.8-15.54-4.23-19.69-10.48-3.87-5.53-5.39-12.25-4.65-20.42.72-7.94,3.57-14.63,8.52-19.83,5.49-5.86,12.69-8.51,21.47-7.72a30,30,0,0,1,9.24,2.25Z" transform="translate(-54.57 -133.19)"/><path class="cls-7" d="M315.05,203.21a.53.53,0,0,0,.5.71.49.49,0,0,0,.3-.1l7.32-5.15a.53.53,0,0,1,.61,0l7.32,5.15a.53.53,0,0,0,.8-.61l-3-8.59a.52.52,0,0,1,.19-.6l7.28-5.13a.53.53,0,0,0-.3-1h-9a.53.53,0,0,1-.51-.37L324,179.09a.53.53,0,0,0-1,0l-2.55,8.47a.52.52,0,0,1-.5.37h-9a.53.53,0,0,0-.3,1l7.29,5.13a.52.52,0,0,1,.19.6Zm19.17-37.66,2.15-23.69,19.78,1.78-5.62,62.09q-.25,2.81-.18,17.64l-18.49-1.66a1.3,1.3,0,0,1-1.16-1.16,1.3,1.3,0,0,0-1.92-1,16.16,16.16,0,0,1-9.44,2.19c-8.89-.8-15.55-4.22-19.7-10.48-3.87-5.52-5.38-12.25-4.64-20.42.72-7.94,3.56-14.62,8.52-19.82,5.48-5.86,12.69-8.51,21.47-7.72A29.83,29.83,0,0,1,334.22,165.55Z" transform="translate(-54.57 -133.19)"/><path class="cls-5" d="M204.29,149.43l-2.09,72.48,2.09,3.18h18.94l-.41-12.76-1.34-1.87-1.15-.52a7.92,7.92,0,0,1-.11.92l-2.59,2.83a.25.25,0,0,1-.39-.29l1.66-3.81a.27.27,0,0,0-.09-.3,13.43,13.43,0,0,0-1.18-1.53,10.31,10.31,0,0,0-1.35-.77.25.25,0,0,1,.15-.46L220,207a.27.27,0,0,0,.25-.18l1.09-4.45a.26.26,0,0,1,.49,0,4.62,4.62,0,0,0,0,2.39,3.86,3.86,0,0,0,.77,1.6.25.25,0,0,0,.25.18l4.52-.18a.25.25,0,0,1,.15.46L224,209a9.3,9.3,0,0,0-.15,1.91l1,2.54,12.32,12.28,14.8-23-2.14-3.19-16.56-4.36L262,170.44l-2.13-3.17-14.2-14.13-22.44,26.8,14-35.24-2.14-3.11Z" transform="translate(-54.57 -133.19)"/><path class="cls-7" d="M202.17,146.27v75.66h18.94V210.47l-.67-.48a.27.27,0,0,0-.3,0l-3.54,2.49a.25.25,0,0,1-.39-.29l1.46-4.16a.26.26,0,0,0-.09-.29l-3.52-2.48a.25.25,0,0,1,.14-.46h4.37a.27.27,0,0,0,.25-.18l1.22-4.1a.26.26,0,0,1,.49,0l1.24,4.1a.25.25,0,0,0,.24.18h4.37a.25.25,0,0,1,.15.46L223,207.74a.26.26,0,0,0-.09.29l1,2.81,11.57,11.09,14.43-22.4L231.2,192l28.69-24.7L243.55,150l-22.44,26.8,14-35.24Z" transform="translate(-54.57 -133.19)"/><polygon class="cls-5" points="213.24 42.09 210.16 88.45 212.24 91.64 237.58 91.9 232.29 42.09 230.15 38.97 213.24 42.09"/><path class="cls-5" d="M275.58,158.23a.25.25,0,0,1-.24.18l-3.65-.18a.25.25,0,0,0-.15.46l2.87,1.55a.24.24,0,0,1,.09.28l-1.58,4.14a.25.25,0,0,0,.38.29s2.79-2.46,2.87-2.52a1.63,1.63,0,0,1,.76,0l3.65,2.52a.25.25,0,0,0,.38-.29l-1.13-3.07a.25.25,0,0,1,.09-.29l3.46-2.44a.25.25,0,0,0-.15-.45H279a.25.25,0,0,1-.24-.18l-1-.94-.49-2.7a.25.25,0,0,0-.48,0Zm-7.77-7,18-1,1.09,1V169H267.81l-1-1.08Z" transform="translate(-54.57 -133.19)"/><polygon class="cls-7" points="211.13 38.92 210.13 88.48 235.47 88.73 230.18 38.92 211.13 38.92"/><path class="cls-7" d="M272.21,164.61a.24.24,0,0,0,.23.33.23.23,0,0,0,.15-.05l3.47-2.44a.26.26,0,0,1,.29,0l3.47,2.44a.25.25,0,0,0,.38-.28l-1.43-4.08a.26.26,0,0,1,.09-.29l3.46-2.43a.25.25,0,0,0-.14-.45h-4.29a.27.27,0,0,1-.24-.18l-1.21-4a.25.25,0,0,0-.48,0l-1.2,4a.27.27,0,0,1-.24.18h-4.29a.25.25,0,0,0-.14.45l3.45,2.43a.26.26,0,0,1,.1.29ZM266.75,168V150.2h19.06V168Z" transform="translate(-54.57 -133.19)"/><path class="cls-5" d="M166.36,147.87a31.22,31.22,0,0,0-19.28,6c-5.94,4.47-12.41,9.33-11.85,16.67.49,6.46,4.48,11.33,9.41,15.35a39.92,39.92,0,0,0,14.62,8.26l4.49,1.24,1.34-6.44a.44.44,0,0,1,.85,0s.52,2.66.92,4.22,1,1.73,1,1.73a.44.44,0,0,0,.42.32l8.95-1.3a.44.44,0,0,1,.25.8L170,197.58a.43.43,0,0,0-.16.5l2.22,5.38a.44.44,0,0,1-.67.51l-4.55-3.35a7.83,7.83,0,0,0-2.17.4l-3.75,3.45a.44.44,0,0,1-.67-.5l2.27-5.89a.43.43,0,0,0-.16-.5l-1.44-.62c-.51-.22-3.68-1.71-3.68-1.71l-23.81-4.94c0,12,1,18.14,6.3,24s16.39,12.09,26.83,12.09c17.85,0,29.93-8.16,29.93-24.47,0-7.16-3.74-14.09-9.32-18.79-4-3.33-9.67-5.61-19.2-9.07a10.4,10.4,0,0,0-3.92-.76,1.39,1.39,0,0,1-.87-.17c-1.2-.55-2.12-.92-2.8-1.27l-2.8-.38a.3.3,0,0,1-.46-.34l2-4.25c0-.16,0-.31.05-.45s-2.42-1.61-2.42-1.61a.3.3,0,0,1,.17-.54l2.83.09a.3.3,0,0,0,.29-.21l.88-4.6a.3.3,0,0,1,.57,0l.35,3a10.22,10.22,0,0,0,1.38,1.66l3.38-.45c.29,0,1.33.28,1.1.45l.62.61c2.28.75,2.49,4.21,2.84,7.24a19.83,19.83,0,0,1,2.59,2.71l22.78-1.64c-.34-9.16-6.48-18.1-12.08-22.57-3.08-2.44-6-2.9-9.9-2.9C172.2,147.7,169.56,147.87,166.36,147.87Z" transform="translate(-54.57 -133.19)"/><path class="cls-6" d="M143.91,149.68a21.32,21.32,0,0,0-8.85,17.88A18.94,18.94,0,0,0,142.34,183q5.22,4.35,15.8,7.71l4.05,1,2.09-6.95a.44.44,0,0,1,.85,0l2.14,7.12a.45.45,0,0,0,.43.32h7.58a.44.44,0,0,1,.26.8l-6.13,4.31a.46.46,0,0,0-.16.51l2.54,7.23a.44.44,0,0,1-.68.5L165,201.17a.47.47,0,0,0-.51,0l-6.15,4.33a.44.44,0,0,1-.68-.5l2.54-7.23a.44.44,0,0,0-.16-.51l-3-2.1-23.41-9.34c-3.18,26.36,9.86,36.39,29.81,36.39s29.92-8.15,29.92-24.47A19.05,19.05,0,0,0,184.26,181c-2.69-1.79-8.86-4.47-18.38-7.94-3.59-1.23-4.12-1.53-4.8-2-1.2-.55-2.11-.92-2.79-1.27l-2.56,1.8a.3.3,0,0,1-.46-.34l1.63-4.62c0-.16,0-.31,0-.46a.28.28,0,0,0-.08-.11l-4.12-2.89a.3.3,0,0,1,.17-.54H158a.29.29,0,0,0,.28-.21l1.44-4.78a.3.3,0,0,1,.57,0l1.44,4.78a.3.3,0,0,0,.28.21h5.1a.3.3,0,0,1,.17.54l-1.48,1c3.31,1.1,4.94,3.85,5.28,7.92L192.33,170c-.34-9.16-3.37-16-9-20.45-4.93-3.91-11.65-5.92-20.17-5.92A31.22,31.22,0,0,0,143.91,149.68Z" transform="translate(-54.57 -133.19)"/><path class="cls-8" d="M92.49,266.05v16.66H89.11v-1.89H80.05V291.9H76.67V280.82h-9v2.06H64.41V266.05H76.67V260h3.38v6.06Zm-15.82,11.6v-8.43h-9v8.43Zm12.44,0v-8.43H80.05v8.43Z" transform="translate(-54.57 -133.19)"/><path class="cls-8" d="M135.23,283.05c2.51,3.35,6.8,5.19,13,5.86a10,10,0,0,0-1.95,3c-7-1-11.46-3.59-14.22-8.36-1.77,4.18-5.5,6.9-14.28,8.33A8.86,8.86,0,0,0,116.1,289c7.53-1.08,10.84-3,12.44-5.93H117.67v-2.89h11.91c.14-.73.28-1.46.39-2.3H116.73V275h13.62v-2.48H119.83v-2.75h10.52v-2.37h-12.2v-2.86h6.73a21.61,21.61,0,0,0-2.33-3.62l2.82-1.12a15.83,15.83,0,0,1,2.86,4.22l-1.15.52h8.5a33.24,33.24,0,0,0,2.72-4.74l3.44.94c-.8,1.29-1.74,2.68-2.57,3.8H146v2.86H133.7v2.37h10.9v2.75H133.7V275h14v2.85H133.35a22.63,22.63,0,0,1-.35,2.3h14.18v2.89Z" transform="translate(-54.57 -133.19)"/><path class="cls-8" d="M182.65,287.34a42.14,42.14,0,0,0-2.86-5,27.9,27.9,0,0,1-7.42,9.65,10.94,10.94,0,0,0-2.33-2.61,24.74,24.74,0,0,0,7.59-10.25,99.17,99.17,0,0,0-6.44-8.36l2.4-1.88c1.78,2,3.66,4.32,5.44,6.62a53.71,53.71,0,0,0,2.19-9.79h-10.1v-3.11h11l.56-.1,2.06.59a60.73,60.73,0,0,1-3.35,15.58,55.46,55.46,0,0,1,4,6.48Zm18.26-24.29c-.9,8.09-2.93,14.39-5.92,19.24a18.58,18.58,0,0,0,7.21,6.93,11.5,11.5,0,0,0-2.34,2.79,22.23,22.23,0,0,1-7-6.76,26.35,26.35,0,0,1-8,6.65,13.46,13.46,0,0,0-2.16-2.85,22.27,22.27,0,0,0,8.33-7c-2.2-4.5-3.59-10-4.57-16.24l.67-.1H186v-3.11h12.23l.56-.1Zm-11.29,2.62a51.75,51.75,0,0,0,3.52,13.1,40.45,40.45,0,0,0,4.22-13.1Z" transform="translate(-54.57 -133.19)"/><path class="cls-8" d="M227.86,280.72H225v-16.8h2.89Zm2.65-20.7h3v13.73c0,6.9-.66,13.38-5.88,18.12a11,11,0,0,0-2.41-2.16c4.74-4.18,5.3-9.86,5.3-16Zm15.78,4.6v3.8h7.32v15.12c0,1.39-.21,2.23-1.12,2.68a8.84,8.84,0,0,1-4,.53,8.87,8.87,0,0,0-.91-2.79c1.15,0,2.27,0,2.55,0s.48-.11.48-.45v-12.2h-4.32v20.52h-3V271.31h-4v15.61h-3v-18.5h7v-3.8h-8.08v-3h19.55v3Z" transform="translate(-54.57 -133.19)"/><path class="cls-8" d="M308.61,282.46H294.78v5.72c0,1.77-.45,2.68-1.88,3.13s-3.49.52-6.52.52a13.81,13.81,0,0,0-1.36-3.1c2.44.07,4.88.07,5.61,0s.84-.18.84-.66v-5.65H278v-3h13.49V277.1a31.66,31.66,0,0,0,5.16-2.62H283.94v-2.82h16.34l.67-.18,2.09,1.64a33.73,33.73,0,0,1-8.26,5.26v1.09h13.83Zm-27-9.72h-3V265.6h5.5a22.84,22.84,0,0,0-2.75-4.08l2.75-1.25a22.43,22.43,0,0,1,3.24,4.63l-1.39.7h6.9a25.55,25.55,0,0,0-2.44-4.88l2.86-1.08a21.71,21.71,0,0,1,2.75,5.19l-1.92.77h5.16a31.59,31.59,0,0,0,3.28-5.44l3.31,1.11c-1,1.47-2.09,3-3.14,4.33h5.4v7.14h-3.21v-4.29H281.61Z" transform="translate(-54.57 -133.19)"/><path class="cls-8" d="M361.89,288.18V291H331.61v-2.85H345v-3.52H334.68v-2.83H345v-2.92h-7.84v-8.4h19.24v8.4h-8.12v2.92h11v2.83h-11v3.52Zm-27.18-15h-3v-7.84h5.64a23.69,23.69,0,0,0-2.54-3.91l2.89-1.14a20.4,20.4,0,0,1,3,4.46l-1.29.59H345v-5.4h3.28v5.4h6l-1.63-.59a32.41,32.41,0,0,0,3-4.61l3.38,1.09a35.81,35.81,0,0,1-3.31,4.11h6.1v7.84h-3.1v-5H334.71Zm5.44,3.2h13v-3.31h-13Z" transform="translate(-54.57 -133.19)"/></svg>